<svg width="163" height="40" viewBox="0 0 163 40" fill="none" xmlns="http://www.w3.org/2000/svg">
<g clip-path="url(#clip0_2_591)">
<path d="M53.4487 21.9851C53.8526 21.7307 54.0543 21.3286 54.0543 20.7883C54.0543 19.7189 53.2573 19.1896 51.6734 19.1896H48.1869V22.3663H51.6734C52.46 22.3663 53.0552 22.2392 53.4487 21.9851ZM48.1869 13.9904V17.019H51.1521C51.8965 17.019 52.4491 16.8919 52.8321 16.6378C53.2147 16.3729 53.406 16.0023 53.406 15.4941C53.406 14.9963 53.2147 14.6149 52.8321 14.3608C52.4491 14.1175 51.8965 13.9904 51.1521 13.9904H48.1869ZM56.4356 19.0836C56.8504 19.6341 57.063 20.3014 57.063 21.0955C57.063 22.2285 56.616 23.0968 55.7447 23.7003C54.8621 24.3041 53.576 24.611 51.8965 24.611H45.21V11.7457H51.5247C53.0978 11.7457 54.3095 12.0421 55.1495 12.6459C55.9891 13.2491 56.4143 14.0644 56.4143 15.0916C56.4143 15.7164 56.2652 16.2776 55.9569 16.7649C55.6595 17.2518 55.2343 17.6435 54.6921 17.9189C55.4365 18.1517 56.0104 18.5436 56.4356 19.0836Z" fill="white"/>
<path d="M67.6508 21.773C68.2674 21.4236 68.746 20.9366 69.0965 20.3119C69.4474 19.6871 69.6278 18.9775 69.6278 18.1834C69.6278 17.3789 69.4474 16.669 69.0965 16.0445C68.746 15.4198 68.2674 14.9325 67.6508 14.5834C67.0343 14.2337 66.3434 14.0644 65.5887 14.0644C64.8234 14.0644 64.1321 14.2337 63.5156 14.5834C62.8995 14.9325 62.4208 15.4198 62.07 16.0445C61.7191 16.669 61.5387 17.3789 61.5387 18.1834C61.5387 18.9775 61.7191 19.6871 62.07 20.3119C62.4208 20.9366 62.8995 21.4236 63.5156 21.773C64.1321 22.1226 64.8234 22.2919 65.5887 22.2919C66.3434 22.2919 67.0343 22.1226 67.6508 21.773ZM61.953 23.9652C60.8795 23.3932 60.0395 22.5988 59.4339 21.5827C58.8174 20.5765 58.5195 19.4435 58.5195 18.1834C58.5195 16.9126 58.8174 15.7799 59.4339 14.7632C60.0395 13.7573 60.8795 12.9632 61.953 12.3912C63.0378 11.8089 64.2382 11.5231 65.5887 11.5231C66.9282 11.5231 68.1291 11.8089 69.2026 12.3912C70.2661 12.9632 71.116 13.7573 71.733 14.7632C72.3387 15.7799 72.6469 16.9126 72.6469 18.1834C72.6469 19.4435 72.3387 20.5765 71.733 21.5827C71.116 22.5988 70.2661 23.3932 69.2026 23.9652C68.1291 24.5474 66.9282 24.8333 65.5887 24.8333C64.2382 24.8333 63.0378 24.5474 61.953 23.9652Z" fill="white"/>
<path d="M83.2236 21.773C83.8402 21.4236 84.3184 20.9366 84.6693 20.3119C85.0202 19.6871 85.201 18.9775 85.201 18.1834C85.201 17.3789 85.0202 16.669 84.6693 16.0445C84.3184 15.4198 83.8402 14.9325 83.2236 14.5834C82.6071 14.2337 81.9163 14.0644 81.1615 14.0644C80.3958 14.0644 79.705 14.2337 79.0884 14.5834C78.4719 14.9325 77.9936 15.4198 77.6432 16.0445C77.2923 16.669 77.1115 17.3789 77.1115 18.1834C77.1115 18.9775 77.2923 19.6871 77.6432 20.3119C77.9936 20.9366 78.4719 21.4236 79.0884 21.773C79.705 22.1226 80.3958 22.2919 81.1615 22.2919C81.9163 22.2919 82.6071 22.1226 83.2236 21.773ZM77.5367 23.9652C76.4523 23.3932 75.6128 22.5988 75.0063 21.5827C74.3902 20.5765 74.0928 19.4435 74.0928 18.1834C74.0928 16.9126 74.3902 15.7799 75.0063 14.7632C75.6128 13.7573 76.4523 12.9632 77.5367 12.3912C78.6102 11.8089 79.8115 11.5231 81.1615 11.5231C82.501 11.5231 83.7019 11.8089 84.7758 12.3912C85.8493 12.9632 86.6893 13.7573 87.3058 14.7632C87.9219 15.7799 88.2197 16.9126 88.2197 18.1834C88.2197 19.4435 87.9219 20.5765 87.3058 21.5827C86.6893 22.5988 85.8493 23.3932 84.7758 23.9652C83.7019 24.5474 82.501 24.8333 81.1615 24.8333C79.8115 24.8333 78.6102 24.5474 77.5367 23.9652Z" fill="white"/>
<path d="M95.1832 19.5602L93.4502 21.3602V24.6108H90.4736V11.7455H93.4502V17.7599L99.1693 11.7455H102.486L97.1389 17.4845L102.805 24.6108H99.318L95.1832 19.5602Z" fill="white"/>
<path d="M119.526 11.7455L113.934 24.6108H110.99L105.409 11.7455H108.641L112.574 20.9365L116.56 11.7455H119.526Z" fill="white"/>
<path d="M120.6 11.7455H123.587V24.6108H120.6V11.7455Z" fill="white"/>
<path d="M126.647 11.7455H129.645V22.186H136.119V24.6108H126.647V11.7455Z" fill="white"/>
<path d="M137.799 11.7455H140.786V22.186H147.259V24.6108H137.799V11.7455Z" fill="white"/>
<path d="M156.062 11.7455H153.106L147.355 24.6108H150.417L151.565 21.8576L152.522 19.5916L154.573 14.6681L156.614 19.5916H153.702L154.594 21.8576H157.56L158.698 24.6108H161.844L156.062 11.7455Z" fill="white"/>
<path d="M121.439 30.5406H119.334L115.252 39.6683H117.432L118.239 37.7199L118.919 36.1105L120.375 32.6163L121.822 36.1105H119.759L120.397 37.7199H122.491L123.31 39.6683H125.531L121.439 30.5406Z" fill="white"/>
<path d="M80.2479 30.5406L76.2831 39.6683H74.1887L70.2344 30.5406H72.5305L75.3152 37.0634L78.1435 30.5406H80.2479Z" fill="white"/>
<path d="M81.0127 30.5406H83.1279V39.6683H81.0127V30.5406Z" fill="white"/>
<path d="M92.398 37.9741V39.6683H85.3076V30.5406H92.228V32.2456H87.4124V34.2257H91.6646V35.8669H87.4124V37.9741H92.398Z" fill="white"/>
<path d="M95.9901 32.2666H93.0566V30.5406H101.04V32.2666H98.1053V39.6683H95.9901V32.2666Z" fill="white"/>
<path d="M114.285 30.5406V39.6683H112.542L107.982 34.1304V39.6683H105.877V30.5406H107.631L112.191 36.0892V30.5406H114.285Z" fill="white"/>
<path d="M134.822 39.6683L134.811 34.1939L132.111 38.7049H131.154L128.476 34.3105V39.6683H126.488V30.5406H128.242L131.665 36.2163L135.045 30.5406H136.789L136.81 39.6683H134.822Z" fill="white"/>
<path d="M28.6518 6.51898L38.8631 16.6907C40.614 18.4352 40.614 21.2901 38.8631 23.0343L23.4724 38.3655C21.7215 40.1094 18.8552 40.1094 17.1043 38.3655L12.6436 33.9222C27.6196 39.8802 37.7109 21.1249 24.1176 20.8037C28.0158 17.7558 34.2368 10.8797 25.9976 8.82333C26.8363 8.06129 27.7208 7.29924 28.6518 6.51898Z" fill="white"/>
<path d="M1.72236 16.6908L17.104 1.36896C18.8549 -0.375265 21.7212 -0.375265 23.4721 1.36896L27.7852 5.66529L27.5732 5.56451L25.7946 4.75659C25.7946 4.75659 23.6011 6.03264 20.7164 8.85077C16.7534 9.51198 12.9291 11.1551 12.9291 11.1551L12.1457 12.2842L11.3623 13.4045C14.1915 12.4129 16.4864 11.7608 18.3479 11.3755C15.1317 15.0844 11.6111 20.4546 9.37144 27.7621L10.9844 28.1936C10.9844 28.1936 13.5557 20.8219 23.6656 11.0082C29.5728 12.0271 23.7117 20.2345 17.5921 20.9595L17.9056 22.612C30.5591 20.9319 24.4951 34.7851 11.1502 32.4349L1.72236 23.0343C-0.0285457 21.2901 -0.0285457 18.435 1.72236 16.6908Z" fill="white"/>
</g>
<defs>
<clipPath id="clip0_2_591">
<rect width="162.174" height="40" fill="white"/>
</clipPath>
</defs>
</svg>
