<svg width="203" height="50" viewBox="0 0 203 50" fill="none" xmlns="http://www.w3.org/2000/svg">
<g clip-path="url(#clip0_3_1374)">
<path d="M66.8111 27.4816C67.316 27.1636 67.5681 26.661 67.5681 25.9856C67.5681 24.6488 66.5719 23.9873 64.592 23.9873H60.2339V27.9581H64.592C65.5752 27.9581 66.3192 27.7992 66.8111 27.4816ZM60.2339 17.4882V21.274H63.9404C64.8708 21.274 65.5616 21.1151 66.0404 20.7975C66.5187 20.4664 66.7578 20.0031 66.7578 19.3678C66.7578 18.7456 66.5187 18.2688 66.0404 17.9512C65.5616 17.647 64.8708 17.4882 63.9404 17.4882H60.2339ZM70.5448 23.8547C71.0632 24.5428 71.329 25.3769 71.329 26.3695C71.329 27.7858 70.7703 28.8712 69.6812 29.6256C68.5779 30.3804 66.9703 30.764 64.8708 30.764H56.5127V14.6824H64.4062C66.3725 14.6824 67.8872 15.0528 68.9372 15.8075C69.9866 16.5616 70.5181 17.5807 70.5181 18.8648C70.5181 19.6457 70.3317 20.3473 69.9464 20.9563C69.5746 21.565 69.0431 22.0545 68.3654 22.3988C69.2958 22.6898 70.0132 23.1798 70.5448 23.8547Z" fill="#003680"/>
<path d="M84.5635 27.2164C85.3342 26.7797 85.9326 26.171 86.3706 25.39C86.8092 24.6091 87.0347 23.7221 87.0347 22.7295C87.0347 21.7238 86.8092 20.8365 86.3706 20.0558C85.9326 19.2749 85.3342 18.6659 84.5635 18.2295C83.7929 17.7924 82.9293 17.5807 81.9858 17.5807C81.0293 17.5807 80.1652 17.7924 79.3945 18.2295C78.6244 18.6659 78.026 19.2749 77.5875 20.0558C77.1489 20.8365 76.9233 21.7238 76.9233 22.7295C76.9233 23.7221 77.1489 24.6091 77.5875 25.39C78.026 26.171 78.6244 26.7797 79.3945 27.2164C80.1652 27.6535 81.0293 27.8651 81.9858 27.8651C82.9293 27.8651 83.7929 27.6535 84.5635 27.2164ZM77.4413 29.9567C76.0994 29.2417 75.0494 28.2487 74.2923 26.9786C73.5217 25.7208 73.1494 24.3045 73.1494 22.7295C73.1494 21.141 73.5217 19.7251 74.2923 18.4542C75.0494 17.1968 76.0994 16.2042 77.4413 15.4892C78.7972 14.7614 80.2978 14.4041 81.9858 14.4041C83.6603 14.4041 85.1614 14.7614 86.5032 15.4892C87.8326 16.2042 88.8951 17.1968 89.6663 18.4542C90.4233 19.7251 90.8086 21.141 90.8086 22.7295C90.8086 24.3045 90.4233 25.7208 89.6663 26.9786C88.8951 28.2487 87.8326 29.2417 86.5032 29.9567C85.1614 30.6845 83.6603 31.0418 81.9858 31.0418C80.2978 31.0418 78.7972 30.6845 77.4413 29.9567Z" fill="#003680"/>
<path d="M104.03 27.2164C104.8 26.7797 105.398 26.171 105.837 25.39C106.275 24.6091 106.502 23.7221 106.502 22.7295C106.502 21.7238 106.275 20.8365 105.837 20.0558C105.398 19.2749 104.8 18.6659 104.03 18.2295C103.259 17.7924 102.396 17.5807 101.452 17.5807C100.495 17.5807 99.6314 17.7924 98.8608 18.2295C98.0901 18.6659 97.4923 19.2749 97.0543 20.0558C96.6157 20.8365 96.3896 21.7238 96.3896 22.7295C96.3896 23.7221 96.6157 24.6091 97.0543 25.39C97.4923 26.171 98.0901 26.7797 98.8608 27.2164C99.6314 27.6535 100.495 27.8651 101.452 27.8651C102.396 27.8651 103.259 27.6535 104.03 27.2164ZM96.9211 29.9567C95.5657 29.2417 94.5162 28.2487 93.7581 26.9786C92.9879 25.7208 92.6162 24.3045 92.6162 22.7295C92.6162 21.141 92.9879 19.7251 93.7581 18.4542C94.5162 17.1968 95.5657 16.2042 96.9211 15.4892C98.263 14.7614 99.7646 14.4041 101.452 14.4041C103.127 14.4041 104.628 14.7614 105.97 15.4892C107.312 16.2042 108.362 17.1968 109.133 18.4542C109.903 19.7251 110.275 21.141 110.275 22.7295C110.275 24.3045 109.903 25.7208 109.133 26.9786C108.362 28.2487 107.312 29.2417 105.97 29.9567C104.628 30.6845 103.127 31.0418 101.452 31.0418C99.7646 31.0418 98.263 30.6845 96.9211 29.9567Z" fill="#003680"/>
<path d="M118.979 24.4504L116.812 26.7004V30.7637H113.092V14.6821H116.812V22.2001L123.961 14.6821H128.107L121.423 21.8558L128.506 30.7637H124.147L118.979 24.4504Z" fill="#003680"/>
<path d="M149.407 14.6821L142.417 30.7637H138.737L131.761 14.6821H135.8L140.717 26.1708L145.699 14.6821H149.407Z" fill="#003680"/>
<path d="M150.749 14.6821H154.483V30.7637H150.749V14.6821Z" fill="#003680"/>
<path d="M158.31 14.6821H162.057V27.7327H170.149V30.7637H158.31V14.6821Z" fill="#003680"/>
<path d="M172.249 14.6821H175.983V27.7327H184.075V30.7637H172.249V14.6821Z" fill="#003680"/>
<path d="M195.077 14.6821H191.383L184.194 30.7637H188.021L189.456 27.3222L190.652 24.4897L193.217 18.3353L195.768 24.4897H192.127L193.243 27.3222H196.95L198.372 30.7637H202.305L195.077 14.6821Z" fill="#003680"/>
<path d="M151.799 38.1758H149.168L144.065 49.5854H146.79L147.799 47.15L148.65 45.1382L150.47 40.7704L152.277 45.1382H149.7L150.496 47.15H153.114L154.138 49.5854H156.914L151.799 38.1758Z" fill="#003680"/>
<path d="M100.309 38.1758L95.3529 49.5854H92.7349L87.792 38.1758H90.6621L94.1431 46.3293L97.6784 38.1758H100.309Z" fill="#003680"/>
<path d="M101.267 38.1758H103.911V49.5854H101.267V38.1758Z" fill="#003680"/>
<path d="M115.497 47.4676V49.5854H106.634V38.1758H115.284V40.307H109.265V42.7822H114.58V44.8337H109.265V47.4676H115.497Z" fill="#003680"/>
<path d="M119.988 40.3333H116.321V38.1758H126.3V40.3333H122.632V49.5854H119.988V40.3333Z" fill="#003680"/>
<path d="M142.856 38.1758V49.5854H140.677L134.977 42.6631V49.5854H132.346V38.1758H134.538L140.239 45.1116V38.1758H142.856Z" fill="#003680"/>
<path d="M168.529 49.5854L168.515 42.7425L165.14 48.3812H163.944L160.596 42.8882V49.5854H158.111V38.1758H160.303L164.582 45.2704L168.808 38.1758H170.987L171.013 49.5854H168.529Z" fill="#003680"/>
<path d="M35.815 8.14893L48.5791 20.8636C50.7678 23.0442 50.7678 26.6128 48.5791 28.7931L29.3407 47.9571C27.1521 50.137 23.5692 50.137 21.3806 47.9571L15.8047 42.4029C34.5248 49.8504 47.1389 26.4063 30.1472 26.0048C35.02 22.1949 42.7963 13.5998 32.4972 11.0294C33.5456 10.0768 34.6513 9.12425 35.815 8.14893Z" fill="#003680"/>
<path d="M2.15319 20.8636L21.3802 1.71138C23.5688 -0.468898 27.1517 -0.468898 29.3403 1.71138L34.7317 7.08179L34.4667 6.95582L32.2435 5.94592C32.2435 5.94592 29.5017 7.54098 25.8957 11.0636C20.942 11.8902 16.1616 13.9441 16.1616 13.9441L15.1823 15.3555L14.2031 16.7558C17.7397 15.5164 20.6083 14.7012 22.9351 14.2196C18.9148 18.8557 14.5141 25.5684 11.7145 34.7028L13.7307 35.2421C13.7307 35.2421 16.9449 26.0276 29.5822 13.7604C36.9663 15.034 29.6399 25.2933 21.9904 26.1996L22.3823 28.2652C38.1992 26.1651 30.6192 43.4816 13.938 40.5438L2.15319 28.7931C-0.0354381 26.6128 -0.0354381 23.0439 2.15319 20.8636Z" fill="#003680"/>
</g>
<defs>
<clipPath id="clip0_3_1374">
<rect width="202.717" height="50" fill="white"/>
</clipPath>
</defs>
</svg>
